<svg height="480pt" viewBox="0 0 480.39093 480" width="480pt" xmlns="http://www.w3.org/2000/svg"><path d="m184.105469 168.195312v-112h-16c-17.671875 0-32 14.328126-32 32v344c0 17.671876 14.328125 32 32 32h208c17.671875 0 32-14.328124 32-32v-24.558593c-126.046875-8.421875-223.984375-113.113281-224-239.441407zm0 0" fill="#cff09e"/><path d="m368.105469 56.195312h-58.960938l-22.636719 11.601563c-3.515624 1.777344-5.214843 5.851563-4 9.597656l8 24c.558594 1.605469.558594 3.355469 0 4.960938l-8 24c-1.214843 3.746093.484376 7.820312 4 9.601562l22.316407 12.238281c1.511719.710938 2.730469 1.929688 3.441406 3.441407l11.601563 22.636719c1.777343 3.515624 5.851562 5.214843 9.597656 4l24-8c1.605468-.558594 3.355468-.558594 4.960937 0l24 8c3.75 1.214843 7.820313-.484376 9.601563-4l12.078125-22.796876v-59.28125c0-22.089843-17.90625-40-40-40zm0 0" fill="#cff09e"/><path d="m394.585938 18.113281 24-8c3.75-1.210937 7.820312.488281 9.601562 4l11.917969 22.800781c.714843 1.511719 1.929687 2.726563 3.441406 3.441407l22.640625 11.601562c3.511719 1.777344 5.210938 5.851563 4 9.597657l-8 24c-.5625 1.605468-.5625 3.355468 0 4.960937l8 24c1.210938 3.746094-.488281 7.820313-4 9.597656l-22.800781 12.082031c-1.511719.710938-2.726563 1.929688-3.441407 3.441407l-11.597656 22.636719c-1.78125 3.515624-5.851562 5.214843-9.601562 4l-24-8c-1.605469-.558594-3.355469-.558594-4.960938 0l-24 8c-3.746094 1.214843-7.820312-.484376-9.597656-4l-12.082031-22.796876c-.710938-1.511718-1.929688-2.730468-3.441407-3.441406l-22.636718-11.601562c-3.515625-1.777344-5.214844-5.851563-4-9.597656l8-24c.558594-1.605469.558594-3.355469 0-4.960938l-8-24c-1.214844-3.75.484375-7.820312 4-9.601562l22.796875-12.078126c1.425781-.703124 2.582031-1.855468 3.28125-3.28125l11.601562-22.640624c1.777344-3.511719 5.851563-5.210938 9.597657-4l24 8c1.722656.589843 3.597656.53125 5.28125-.160157zm0 0" fill="#a8dba8"/><path d="m424.105469 88.195312c0 17.671876-14.328125 32-32 32s-32-14.328124-32-32c0-17.671874 14.328125-32 32-32s32 14.328126 32 32zm0 0" fill="#cff09e"/><path d="m216.105469 120.195312h48c8.835937 0 16 7.164063 16 16 0 8.835938-7.164063 16-16 16h-48c-8.835938 0-16-7.164062-16-16 0-8.835937 7.164062-16 16-16zm0 0" fill="#a8dba8"/><path d="m173.226562 462.996094-5.121093-19.761719c-.585938-2.113281-2.761719-3.359375-4.878907-2.800781l-19.679687 5.28125c-1.554687.398437-3.195313-.167969-4.171875-1.4375-.976562-1.273438-1.097656-3.003906-.308594-4.402344l45.039063-79.679688 41.601562 24-45.199219 80c-.859374 1.363282-2.449218 2.082032-4.039062 1.820313-1.59375-.261719-2.871094-1.453125-3.242188-3.019531zm0 0" fill="#79bd9a"/><path d="m88.105469 199.875 144.800781 125.199219 166.960938 54.882812-36 62.316407-311.761719-180zm0 0" fill="#79bd9a"/><path d="m305.226562 464.195312-134.5625-87.28125-142.558593-72.71875c-19.128907-11.046874-25.683594-35.507812-14.640625-54.640624l4-6.960938c5.25-9.238281 13.964844-16.011719 24.214844-18.816406 10.253906-2.808594 21.199218-1.421875 30.425781 3.859375l134.558593 86.957031 142.5625 73.042969c19.128907 11.042969 25.683594 35.507812 14.640626 54.636719l-4 6.960937c-5.253907 9.242187-13.964844 16.011719-24.214844 18.820313-10.253906 2.808593-21.199219 1.417968-30.425782-3.859376zm0 0" fill="#a8dba8"/><path d="m211.792969 289.742188 27.710937 16c3.828125 2.210937 5.136719 7.101562 2.929688 10.929687l-52 90.066406c-2.210938 3.824219-7.101563 5.136719-10.929688 2.929688l-27.710937-16c-3.828125-2.210938-5.140625-7.105469-2.929688-10.929688l52-90.066406c2.207031-3.828125 7.101563-5.136719 10.929688-2.929687zm0 0" fill="#cff09e"/><g fill="#3b8686"><path d="m469.785156 88.195312 10.320313-30.640624c1.03125-3.753907-.792969-7.707032-4.320313-9.359376l-28.71875-14.960937-14.960937-28.71875c-1.804688-3.484375-5.871094-5.144531-9.597657-3.921875l-30.402343 9.921875-30.640625-9.921875c-3.726563-1.222656-7.792969.4375-9.597656 3.921875l-14.722657 28.71875-28.71875 14.960937h-140.320312c-22.089844 0-40 17.910157-40 40v136l-34.71875-30c-1.8125-1.589843-4.242188-2.277343-6.617188-1.871093-2.371093.402343-4.4375 1.855469-5.625 3.949219l-12.320312 21.363281c-21.871094-8.238281-46.496094.476562-58.316407 20.636719l-4 6.960937c-6.4257808 11.046875-8.179687 24.199219-4.875 36.539063 3.300782 12.34375 11.390626 22.859374 22.472657 29.222656l104 53.117187v78.5625l-.878907 1.519531c-1.539062 2.863282-1.191406 6.375.878907 8.878907 1.738281 2.25 4.542969 3.40625 7.359375 3.039062h.640625c1.667969-.007812 3.289062-.539062 4.640625-1.519531l20.558594-5.4375 6.800781 25.117188c.851562 3.128906 3.503906 5.4375 6.71875 5.839843h1.28125c2.871093.011719 5.527343-1.511719 6.960937-4l2.320313-4h118.71875c13.433593 6.660157 29.207031 6.660157 42.640625 0h29.359375c22.09375 0 40-17.90625 40-40v-258.476562l6.640625 2.160156c.804687.242187 1.640625.375 2.480468.398437 2.996094.007813 5.742188-1.660156 7.121094-4.320312l14.71875-28.71875 28.71875-14.960938c3.484375-1.804687 5.144532-5.871093 3.921875-9.601562zm-379.597656 124.078126 80 69.28125-87.363281-56.480469zm-58.082031 84.640624c-7.339844-4.25-12.691407-11.242187-14.878907-19.4375-2.191406-8.105468-1.035156-16.753906 3.199219-24l4-6.960937c4.132813-7.492187 11.160157-12.960937 19.441407-15.121094 8.074218-2.261719 16.714843-1.195312 24 2.960938l114.640624 74.078125-29.203124 50.5625zm168 13.679688c2.726562-5.207031 8.085937-8.5 13.960937-8.582031 5.878906-.078125 11.324219 3.070312 14.1875 8.203125 2.863282 5.132812 2.683594 11.421875-.46875 16.378906l-36 62.320312c-2.117187 3.664063-5.597656 6.339844-9.679687 7.441407-6.246094 1.671875-12.886719-.582031-16.824219-5.710938-3.9375-5.128906-4.402344-12.125-1.175781-17.730469zm-56 61.679688 2.480469 1.28125c-2.339844 9.386718-.3125 19.324218 5.519531 27.039062l-8 14.320312zm34.320312 79.203124-3.761719-14.160156c-.570312-2.035156-1.921874-3.761718-3.757812-4.800781-1.839844-1.0625-4.027344-1.351563-6.082031-.800781l-14.078125 3.761718 14.480468-25.042968c3.902344 1.632812 8.089844 2.476562 12.320313 2.480468 7.859375.046876 15.464844-2.800781 21.359375-8l4.800781 3.042969zm16 4.71875 22.960938-40 61.519531 40zm162.800781-17.921874-4 6.960937c-2.824218 4.507813-6.695312 8.265625-11.28125 10.960937-1.152343.320313-2.21875.894532-3.121093 1.679688-9.351563 4.402344-20.257813 4.015625-29.277344-1.039062l-101.441406-65.121094 30-51.917969 107.121093 54.796875c7.324219 4.234375 12.671876 11.195312 14.878907 19.363281 2.230469 8.199219 1.109375 16.945313-3.121094 24.316407zm-4.082031-57.757813-41.277343-21.199219 76.160156 24.878906-13.28125 23.039063c-3.714844-11.304687-11.5-20.828125-21.839844-26.71875zm46.960938 51.679687c0 13.253907-10.746094 24-24 24h-11.199219l1.917969-2.960937 4-6.960937 29.28125-50.71875zm0-96v35.359376l-154.71875-50.800782c.304687-3.515625.007812-7.0625-.878907-10.480468-2.1875-8.195313-7.542968-15.1875-14.882812-19.4375-8.148438-4.621094-17.914062-5.441407-26.71875-2.242188l-58.800781-50.878906v-37.519532c.039062-.320312.039062-.640624 0-.960937.035156-.34375.035156-.695313 0-1.039063v-110c0-13.253906 10.746093-24 24-24h138.558593l8 24-9.917968 30.640626c-1.226563 3.726562.433594 7.792968 3.917968 9.597656l28.722657 14.722656 14.71875 28.71875c1.804687 3.484375 5.871093 5.144531 9.601562 3.921875l30.398438-9.921875 8 2.320312zm53.679687-245.519531 8.640625 26.640625-24.960937 12.71875c-1.515625.769532-2.75 2.003906-3.519532 3.519532l-12.71875 24.960937-26.640624-8.640625c-1.613282-.527344-3.347657-.527344-4.960938 0l-26.640625 8.640625-12.71875-24.960937c-.769531-1.515626-2-2.75-3.519531-3.519532l-24.960938-12.71875 8.640625-26.640625c.5625-1.605469.5625-3.355469 0-4.960937l-8.640625-26.640625 24.960938-12.71875c1.519531-.769531 2.75-2.003907 3.519531-3.519531l12.71875-24.960938 26.640625 8.640625c1.605469.558594 3.355469.558594 4.960938 0l26.640624-8.640625 12.71875 24.960938c.769532 1.515624 2.003907 2.75 3.519532 3.519531l24.960937 12.71875-8.640625 26.640625c-.558594 1.605468-.558594 3.355468 0 4.960937zm0 0"/><path d="m392.105469 48.195312c-22.089844 0-40 17.910157-40 40 0 22.089844 17.910156 40 40 40 22.09375 0 40-17.910156 40-40 0-22.089843-17.90625-40-40-40zm0 64c-13.253907 0-24-10.746093-24-24 0-13.253906 10.746093-24 24-24 13.253906 0 24 10.746094 24 24 0 13.253907-10.746094 24-24 24zm0 0"/><path d="m336.105469 192.195312h-136c-4.417969 0-8 3.582032-8 8 0 4.417969 3.582031 8 8 8h136c4.417969 0 8-3.582031 8-8 0-4.417968-3.582031-8-8-8zm0 0"/><path d="m336.105469 232.195312h-112c-4.417969 0-8 3.582032-8 8 0 4.417969 3.582031 8 8 8h112c4.417969 0 8-3.582031 8-8 0-4.417968-3.582031-8-8-8zm0 0"/><path d="m336.105469 272.195312h-56c-4.417969 0-8 3.582032-8 8 0 4.417969 3.582031 8 8 8h56c4.417969 0 8-3.582031 8-8 0-4.417968-3.582031-8-8-8zm0 0"/><path d="m216.105469 160.195312h48c13.253906 0 24-10.746093 24-24 0-13.253906-10.746094-24-24-24h-48c-13.253907 0-24 10.746094-24 24 0 13.253907 10.746093 24 24 24zm0-32h48c4.417969 0 8 3.582032 8 8 0 4.417969-3.582031 8-8 8h-48c-4.417969 0-8-3.582031-8-8 0-4.417968 3.582031-8 8-8zm0 0"/></g></svg>